HIERARCHY
ROOT root
{
	OFFSET	0	13.1	24.9
	CHANNELS 6  Xposition Yposition Zposition Xrotation Yrotation Zrotation
	JOINT spine_1
	{
		OFFSET	0	9.99999	0
		CHANNELS 3  Xrotation Yrotation Zrotation
		JOINT spine_2
		{
			OFFSET	0	112	-10
			CHANNELS 3  Xrotation Yrotation Zrotation
			JOINT spine_3
			{
				OFFSET	0	206.5	19.3
				CHANNELS 3  Xrotation Yrotation Zrotation
				JOINT spine_4
				{
					OFFSET	0	110.4	14.6
					CHANNELS 3  Xrotation Yrotation Zrotation
					JOINT neck_1
					{
						OFFSET	0	71.8	-50.3
						CHANNELS 3  Xrotation Yrotation Zrotation
						JOINT neck_2
						{
							OFFSET	0	86.2	-25.8
							CHANNELS 3  Xrotation Yrotation Zrotation
							JOINT head_ee
							{
								OFFSET	0	179.8	-8.7
								CHANNELS 3  Xrotation Yrotation Zrotation
								End Site
								{
									OFFSET	1	0	0
								}
							}
						}
					}
					JOINT left_clavicle
					{
						OFFSET	-43.2	22.4	-70.8
						CHANNELS 3  Xrotation Yrotation Zrotation
						JOINT left_shoulder
						{
							OFFSET	-93.9	-5.79999	48.7
							CHANNELS 3  Xrotation Yrotation Zrotation
							JOINT left_elbow
							{
								OFFSET	-291.4	-30.8	15.2
								CHANNELS 3  Xrotation Yrotation Zrotation
								JOINT left_lowarm_twist
								{
									OFFSET	-110.7	-3.89999	13.6
									CHANNELS 3  Xrotation Yrotation Zrotation
									JOINT left_hand
									{
										OFFSET	-110.7	-3.89999	13.6
										CHANNELS 3  Xrotation Yrotation Zrotation
										JOINT left_ee
										{
											OFFSET	-80.8	-5.10001	12.1
											CHANNELS 3  Xrotation Yrotation Zrotation
											End Site
											{
												OFFSET	1	0	0
											}
										}
									}
								}
							}
						}
					}
					JOINT right_clavicle
					{
						OFFSET	43.2	22.4	-70.8
						CHANNELS 3  Xrotation Yrotation Zrotation
						JOINT right_shoulder
						{
							OFFSET	93.9	-5.79999	48.7
							CHANNELS 3  Xrotation Yrotation Zrotation
							JOINT right_elbow
							{
								OFFSET	291.4	-30.8	15.2
								CHANNELS 3  Xrotation Yrotation Zrotation
								JOINT right_lowarm_twist
								{
									OFFSET	110.7	-3.89999	13.6
									CHANNELS 3  Xrotation Yrotation Zrotation
									JOINT right_hand
									{
										OFFSET	110.7	-3.89999	13.6
										CHANNELS 3  Xrotation Yrotation Zrotation
										JOINT right_ee
										{
											OFFSET	80.8	-5.10001	12.1
											CHANNELS 3  Xrotation Yrotation Zrotation
											End Site
											{
												OFFSET	1	0	0
											}
										}
									}
								}
							}
						}
					}
				}
			}
		}
	}
	JOINT left_hip
	{
		OFFSET	-82.8	-127.5	0.300001
		CHANNELS 3  Xrotation Yrotation Zrotation
		JOINT left_knee
		{
			OFFSET	-28.2	-396.7	2.2
			CHANNELS 3  Xrotation Yrotation Zrotation
			JOINT left_ankle
			{
				OFFSET	-11.7	-411.3	35.4
				CHANNELS 3  Xrotation Yrotation Zrotation
				JOINT left_toes
				{
					OFFSET	0	-60	-88.6
					CHANNELS 3  Xrotation Yrotation Zrotation
					JOINT left_foot_ee
					{
						OFFSET	-22.5	-16.5	-42.2
						CHANNELS 3  Xrotation Yrotation Zrotation
						End Site
						{
							OFFSET	1	0	0
						}
					}
				}
			}
		}
	}
	JOINT right_hip
	{
		OFFSET	82.8	-127.5	0.300001
		CHANNELS 3  Xrotation Yrotation Zrotation
		JOINT right_knee
		{
			OFFSET	28.2	-396.7	2.2
			CHANNELS 3  Xrotation Yrotation Zrotation
			JOINT right_ankle
			{
				OFFSET	11.7	-411.3	35.4
				CHANNELS 3  Xrotation Yrotation Zrotation
				JOINT right_toes
				{
					OFFSET	0	-60	-88.6
					CHANNELS 3  Xrotation Yrotation Zrotation
					JOINT right_foot_ee
					{
						OFFSET	22.5	-16.5	-42.2
						CHANNELS 3  Xrotation Yrotation Zrotation
						End Site
						{
							OFFSET	1	0	0
						}
					}
				}
			}
		}
	}
}
MOTION
Frames: 13
Frame Time: 0.02
1224.76676631 751.498 -1731.67943659 -12.9128009427 32.5318475931 -2.61345835474 2.953 0.693381 2.95333 2.95771 0.504135 2.99141 2.98277 0.0222902 3.03348 2.97028 0.500874 2.99196 3.35237 5.66556 -1.15598 3.49 10.8377 -0.925205 -0.0 0.0 -0.0 5.47684 23.3427 10.2888 -34.0513 -18.6461 56.0266 0.776101 -21.0296 0.144051 37.0937 -0.206793 -4.65225 -0.0024201 24.088 9.58058 -0.0 0.0 -0.0 3.3699 -14.2862 -7.15284 -18.7271 40.9864 -84.6354 0.549262 15.2212 -0.0733912 71.968 2.94709 8.0938 -3.61854 -28.6912 8.343 0.0 0.0 0.0 43.0966 1.55128 8.90747 -55.0535 -1.69019 7.9584 -14.9507 20.7534 2.29126 -6.72475 0.0 0.0 -0.0 0.0 -0.0 9.33115 38.1758 7.83393 -10.7714 -0.291475 -1.62493 19.6464 -26.0964 2.84007 39.1713 -0.0 -0.0 0.0 0.0 0.0 
1223.53919177 751.498 -1730.97052957 -12.9522079517 32.7995137374 -2.54044694682 2.953 0.693381 2.95333 2.95771 0.504135 2.99141 2.98277 0.0222902 3.03348 2.97028 0.500874 2.99196 3.35237 5.66556 -1.15598 3.49 10.8377 -0.925205 -0.0 0.0 -0.0 5.47684 23.3427 10.2888 -34.0513 -18.6461 56.0266 0.776101 -21.0296 0.144051 37.0937 -0.206793 -4.65225 -0.0024201 24.088 9.58058 -0.0 0.0 -0.0 3.3699 -14.2862 -7.15284 -18.7271 40.9864 -84.6354 0.549262 15.2212 -0.0733912 71.968 2.94709 8.0938 -3.61854 -28.6912 8.343 0.0 0.0 0.0 43.0966 1.55128 8.90747 -55.0535 -1.69019 7.9584 -14.9507 20.7534 2.29126 -6.72475 0.0 0.0 -0.0 0.0 -0.0 9.33115 38.1758 7.83393 -10.7714 -0.291475 -1.62493 19.6464 -26.0964 2.84007 39.1713 -0.0 -0.0 0.0 0.0 0.0 
1218.17628295 751.918 -1746.10696321 -13.57573606 32.8349367942 -1.72835383332 3.0006 0.718443 2.93896 3.00525 0.530059 2.97867 3.03151 0.0525231 3.02497 3.01913 0.529386 2.97879 1.95224 5.85132 -1.95053 2.11164 11.9201 -1.67745 -0.0 0.0 -0.0 5.09768 24.1824 9.72025 -33.5577 -18.7642 55.5986 0.777028 -21.0525 0.144384 35.3917 -0.131515 -4.44808 0.00541686 23.9519 9.57624 -0.0 0.0 -0.0 3.12521 -14.6343 -6.76634 -17.7659 41.3049 -85.5235 0.567653 15.7061 -0.0782948 71.7942 2.92863 8.08127 -3.59344 -28.702 8.19958 0.0 0.0 0.0 43.0807 2.78399 7.40507 -50.292 -1.2477 7.37352 -10.9324 18.8549 1.65779 -6.52078 0.0 0.0 -0.0 0.0 -0.0 9.08208 37.8802 7.05511 -10.3518 -0.285871 -1.56079 20.388 -26.685 2.9489 39.1875 -0.0 -0.0 0.0 0.0 0.0 
1201.93898826 753.671 -1753.0040548 -14.3909023321 34.0048135413 -0.49960565398 3.24756 0.680591 2.86048 3.25198 0.497271 2.89794 3.27557 0.0454028 2.93991 3.26387 0.50894 2.89592 2.90366 6.82894 -0.980979 3.08062 12.7491 -0.617919 -0.0 0.0 -0.0 4.65105 23.8083 9.11511 -32.6287 -18.0376 57.6133 0.644242 -17.7 0.100311 33.8875 -0.0700728 -4.26589 0.0606563 24.3738 10.0492 -0.0 0.0 -0.0 2.33995 -15.4167 -5.53831 -17.4983 41.7548 -86.2104 0.589018 16.2664 -0.0841788 71.5093 2.89847 8.06063 -3.44888 -28.6973 7.41561 0.0 0.0 0.0 40.913 0.953185 8.10575 -39.9503 -0.463605 5.99132 -8.33547 18.3674 1.25775 -7.86849 0.0 0.0 -0.0 0.0 -0.0 8.82134 37.6495 6.31318 -9.84143 -0.278423 -1.48283 22.5987 -27.5126 3.25542 39.6664 -0.0 -0.0 0.0 0.0 0.0 
1190.2687181 753.267 -1756.75560092 -15.1607015377 35.8703378305 1.1345073978 3.36988 0.566088 2.51065 3.37329 0.405234 2.54156 3.38993 0.0143601 2.5736 3.38093 0.420499 2.53908 3.10437 7.14856 -0.498761 3.28028 12.8791 -0.0752879 -0.0 0.0 -0.0 4.27765 23.5835 8.60173 -31.4923 -18.0428 59.6942 0.641724 -17.6351 0.0995466 31.5557 0.0156563 -3.98048 0.18174 24.0258 10.6265 -0.0 0.0 -0.0 1.2791 -15.5921 -3.86176 -14.8558 43.3937 -88.3956 0.530701 14.7296 -0.068595 71.0965 2.85494 8.03045 -3.25884 -27.0258 7.34744 0.0 0.0 0.0 40.2594 0.0169158 7.59641 -31.1965 -0.00362075 4.72887 -8.48085 16.2087 1.27266 -9.95835 0.0 0.0 -0.0 0.0 -0.0 8.32339 38.9364 5.40309 -9.11284 -0.266586 -1.37166 20.7678 -27.9832 3.02422 38.2776 -0.0 -0.0 0.0 0.0 0.0 
1150.77435426 749.322 -1770.40724368 -16.7212891549 40.2444894685 3.78308769439 3.5492 0.600111 2.60514 3.55287 0.433182 2.63802 3.57119 0.0358156 2.67308 3.56151 0.457381 2.63393 3.46394 8.15919 -1.66761 3.75623 15.6026 -1.36948 -0.0 0.0 -0.0 3.66416 24.6204 7.75183 -31.7931 -17.8401 59.3856 0.55033 -15.2494 0.073672 29.734 0.0745007 -3.75524 0.396009 21.1973 10.8879 -0.0 0.0 -0.0 0.149113 -17.5142 -2.28092 -13.9958 42.2752 -89.0714 0.582362 16.0922 -0.0823243 70.994 2.84416 8.0229 -3.31517 -28.5528 6.77346 0.0 0.0 0.0 35.6446 -1.61533 7.55674 -14.3833 0.320252 2.17827 -4.29295 16.8838 0.640814 -12.3588 0.0 0.0 -0.0 0.0 -0.0 7.82454 36.6799 4.16495 -9.59915 -0.274644 -1.44585 22.4688 -27.5305 3.2389 39.5502 -0.0 -0.0 0.0 0.0 0.0 
1138.02015756 749.108 -1770.67965922 -17.9919385975 41.0741805138 5.59080924665 3.73927 0.615223 2.26351 3.742 0.469983 2.29804 3.7595 0.130537 2.34195 3.75219 0.498668 2.29199 3.05398 8.92035 -2.14989 3.41429 17.3785 -1.82276 -0.0 0.0 -0.0 3.98193 24.7531 8.18073 -30.7471 -18.343 60.1205 0.489416 -13.6282 0.0584817 28.176 0.119118 -3.56124 0.256686 24.2217 11.1315 -0.0 0.0 -0.0 -0.896142 -16.6798 -0.561082 -9.75316 41.0254 -90.9326 0.596453 16.4607 -0.0862736 72.1973 2.9715 8.11023 -3.18936 -28.1793 6.30342 0.0 0.0 0.0 35.6169 -2.44571 6.35297 -8.34126 0.252511 1.2541 -2.61135 16.5419 0.388199 -12.9349 0.0 0.0 -0.0 0.0 -0.0 7.49652 36.5898 4.05213 -7.99433 -0.245667 -1.2013 24.9808 -27.7154 3.56548 39.6576 -0.0 -0.0 0.0 0.0 0.0 
1117.52644562 743.959 -1776.05800768 -18.5891846691 42.4307297013 6.94250693615 3.81582 0.588472 2.1715 3.81833 0.449136 2.20452 3.83431 0.12644 2.24623 3.82759 0.479517 2.19812 2.40836 9.07996 -3.2528 2.83223 18.6474 -2.96301 -0.0 0.0 -0.0 4.02223 24.6375 8.23654 -30.8549 -18.5659 61.0266 0.459408 -12.8211 0.0516167 27.4731 0.137517 -3.47333 0.132119 25.2247 10.7647 -0.0 0.0 -0.0 -1.28997 -17.3961 -0.0531258 -8.79653 40.6586 -91.0403 0.614409 16.9283 -0.0914318 72.8638 3.04282 8.15745 -3.19872 -28.1799 6.35407 0.0 0.0 0.0 36.0777 -2.43622 5.34123 -4.62921 0.162726 0.691617 -2.68861 17.7739 0.401057 -13.392 0.0 0.0 -0.0 0.0 -0.0 6.82229 37.1448 3.27594 -7.86654 -0.243065 -1.18186 22.8593 -27.8098 3.2957 39.7039 -0.0 -0.0 0.0 0.0 0.0 
1093.09100391 738.154 -1789.35064091 -19.9544354789 44.0668014234 9.02030238589 3.73551 0.637554 2.14554 3.73793 0.499769 2.18174 3.75577 0.176809 2.23123 3.74921 0.526888 2.17535 1.61785 10.0422 -1.83116 1.98969 19.2296 -1.1952 -0.0 0.0 -0.0 3.03914 24.4853 6.90581 -30.2054 -18.9029 61.3718 0.486918 -13.5612 0.0578946 26.4867 0.161512 -3.34962 0.249187 25.77 11.6262 -0.0 0.0 -0.0 -1.11895 -16.8663 -0.2405 -6.74799 40.1434 -91.9266 0.609391 16.7978 -0.0899761 73.6372 3.12626 8.21121 -3.2018 -28.0127 6.46652 0.0 0.0 0.0 37.0291 -2.29778 4.57305 -0.390764 0.0158932 0.0578607 -2.01848 16.6503 0.29978 -14.0431 0.0 0.0 -0.0 0.0 -0.0 6.2255 37.6045 1.60183 -7.54359 -0.236297 -1.13277 22.3692 -27.6723 3.22892 39.7976 -0.0 -0.0 0.0 0.0 0.0 
1084.96486823 738.154 -1781.9418743 -20.4684804658 45.4742413506 9.75014095706 3.73551 0.637554 2.14554 3.73793 0.499769 2.18174 3.75577 0.176809 2.23123 3.74921 0.526888 2.17535 1.61785 10.0422 -1.83116 1.98969 19.2296 -1.1952 -0.0 0.0 -0.0 3.03914 24.4853 6.90581 -30.2054 -18.9029 61.3718 0.486918 -13.5612 0.0578946 26.4867 0.161512 -3.34962 0.249187 25.77 11.6262 -0.0 0.0 -0.0 -1.11895 -16.8663 -0.2405 -6.74799 40.1434 -91.9266 0.609391 16.7978 -0.0899761 73.6372 3.12626 8.21121 -3.2018 -28.0127 6.46652 0.0 0.0 0.0 37.0291 -2.29778 4.57305 -0.390764 0.0158932 0.0578607 -2.01848 16.6503 0.29978 -14.0431 0.0 0.0 -0.0 0.0 -0.0 6.2255 37.6045 1.60183 -7.54359 -0.236297 -1.13277 22.3692 -27.6723 3.22892 39.7976 -0.0 -0.0 0.0 0.0 0.0 
1070.7441234 731.72 -1787.29863322 -20.1794977675 45.462702745 9.58828380701 3.73254 0.587227 1.95289 3.73454 0.461795 1.98628 3.74957 0.167445 2.03235 3.74414 0.486253 1.98044 0.653869 10.744 -2.01176 1.04534 20.729 -1.19046 -0.0 0.0 -0.0 3.38853 23.8561 7.37305 -29.853 -19.2599 62.3114 0.490873 -13.6672 0.0588256 25.2486 0.18861 -3.19379 0.197349 26.858 11.7053 -0.0 0.0 -0.0 -1.3372 -17.2937 0.0349666 -6.5945 39.3938 -90.9396 0.604411 16.6682 -0.0885422 74.7045 3.24259 8.28354 -3.19651 -27.999 6.44541 0.0 0.0 0.0 37.8651 -1.83833 4.43924 1.62853 -0.0704797 -0.239952 -2.57884 16.654 0.383448 -14.9207 0.0 0.0 -0.0 0.0 -0.0 5.21351 38.4846 1.8518 -8.40626 -0.253758 -1.264 19.9559 -27.6687 2.90961 40.0103 -0.0 -0.0 0.0 0.0 0.0 
1066.0171075 731.72 -1782.66458573 -20.4927555501 46.2825375183 10.0246892096 3.73254 0.587227 1.95289 3.73454 0.461795 1.98628 3.74957 0.167445 2.03235 3.74414 0.486253 1.98044 0.653869 10.744 -2.01176 1.04534 20.729 -1.19046 -0.0 0.0 -0.0 3.38853 23.8561 7.37305 -29.853 -19.2599 62.3114 0.490873 -13.6672 0.0588256 25.2486 0.18861 -3.19379 0.197349 26.858 11.7053 -0.0 0.0 -0.0 -1.3372 -17.2937 0.0349666 -6.5945 39.3938 -90.9396 0.604411 16.6682 -0.0885422 74.7045 3.24259 8.28354 -3.19651 -27.999 6.44541 0.0 0.0 0.0 37.8651 -1.83833 4.43924 1.62853 -0.0704797 -0.239952 -2.57884 16.654 0.383448 -14.9207 0.0 0.0 -0.0 0.0 -0.0 5.21351 38.4846 1.8518 -8.40626 -0.253758 -1.264 19.9559 -27.6687 2.90961 40.0103 -0.0 -0.0 0.0 0.0 0.0 
1063.24102422 731.72 -1779.87607013 -20.6855223425 46.7690507828 10.2903211391 3.73254 0.587227 1.95289 3.73454 0.461795 1.98628 3.74957 0.167445 2.03235 3.74414 0.486253 1.98044 0.653869 10.744 -2.01176 1.04534 20.729 -1.19046 -0.0 0.0 -0.0 3.38853 23.8561 7.37305 -29.853 -19.2599 62.3114 0.490873 -13.6672 0.0588256 25.2486 0.18861 -3.19379 0.197349 26.858 11.7053 -0.0 0.0 -0.0 -1.3372 -17.2937 0.0349666 -6.5945 39.3938 -90.9396 0.604411 16.6682 -0.0885422 74.7045 3.24259 8.28354 -3.19651 -27.999 6.44541 0.0 0.0 0.0 37.8651 -1.83833 4.43924 1.62853 -0.0704797 -0.239952 -2.57884 16.654 0.383448 -14.9207 0.0 0.0 -0.0 0.0 -0.0 5.21351 38.4846 1.8518 -8.40626 -0.253758 -1.264 19.9559 -27.6687 2.90961 40.0103 -0.0 -0.0 0.0 0.0 0.0 
